<?xml version="1.0" encoding="UTF-8" standalone="no"?>
<!-- Created with Inkscape (http://www.inkscape.org/) -->

<svg
   version="1.1"
   id="svg182"
   width="1875.0133"
   height="339.78668"
   viewBox="0 0 1875.0133 339.78668"
   xmlns="http://www.w3.org/2000/svg"
   xmlns:svg="http://www.w3.org/2000/svg">
  <defs
     id="defs186" />
  <g
     id="g188"
     transform="matrix(1.3333333,0,0,-1.3333333,0,339.78799)">
    <g
       id="g190"
       transform="scale(0.1)">
      <path
         d="M 1924.6,2548.41 C 861.676,2548.41 0,1977.93 0,1274.2 0,570.48 861.676,0 1924.6,0 c 1062.93,0 1924.6,570.48 1924.6,1274.2 0,703.73 -861.67,1274.21 -1924.6,1274.21 z m 0,-60 c 502.43,0 973.98,-129 1327.78,-363.23 346.18,-229.2 536.82,-531.41 536.82,-850.98 0,-319.559 -190.64,-621.778 -536.82,-850.97 C 2898.58,189 2427.03,60 1924.6,60 1422.17,60 950.625,189 596.824,423.23 250.648,652.422 60,954.641 60,1274.2 c 0,319.57 190.648,621.78 536.824,850.98 353.797,234.23 825.346,363.23 1327.776,363.23"
         style="fill:#395998;fill-opacity:1;fill-rule:nonzero;stroke:none"
         id="path192" />
      <path
         d="m 519.004,1629.23 c 0.101,-0.2 0.203,-0.41 0.305,-0.61 -0.102,0.2 -0.204,0.4 -0.305,0.61"
         style="fill:#abaaa9;fill-opacity:1;fill-rule:nonzero;stroke:none"
         id="path194" />
      <path
         d="m 538.129,1591.05 c 0.555,-1.1 1.109,-2.21 1.664,-3.32 -0.555,1.11 -1.117,2.23 -1.664,3.32"
         style="fill:#abaaa9;fill-opacity:1;fill-rule:nonzero;stroke:none"
         id="path196" />
      <path
         d="m 2454.76,1525.16 -536.09,157.9 -532.82,-157.15 93.04,-93.3 378.36,112.67 v -11.82 l 27.3,-17.35 h 73.35 l 27.3,17.35 v 11.25 l 376.65,-111.61 92.91,92.06"
         style="fill:#395998;fill-opacity:1;fill-rule:nonzero;stroke:none"
         id="path198" />
      <path
         d="m 2142.62,554.461 h -91.43 v 203.961 h 91.43 z m -179.18,0 h -91.43 v 203.961 h 91.43 z m -179.18,0 h -91.86 v 203.961 h 91.86 z M 3018.08,899.59 3001.27,866.148 H 830.266 l -16.797,33.532 -374.332,747.25 -7.004,-10.41 V 1470.57 L 837.945,597.711 v 0 0 h 638.975 v 159.348 l 127.74,0.839 V 554.461 h -33.22 v -48.082 h 693.83 v 48.082 h -33.22 v 203.961 h 124.53 l 0.07,-160.711 h 636.14 v 0 0 l 415.7,872.859 v 165.95 l -11.94,17.32 C 3271.33,1403.54 3020.6,904.621 3018.08,899.59"
         style="fill:#395998;fill-opacity:1;fill-rule:nonzero;stroke:none"
         id="path200" />
      <path
         d="m 2692.54,1591.05 328.7,141.67 278.98,-67.82 -57.54,-107.68 z m 368.12,-373.13 -664.7,79.19 242.43,260.72 581.44,-43.2 z m -30.92,-57.59 c -21.49,-40.24 -56.89,-106.2 -79.61,-148.49 H 2431.3 c -18.42,77.87 -36.83,155.73 -55.25,233.59 218.98,-26.36 437.96,-52.73 656.94,-79.09 -1.08,-2.01 -2.17,-4.01 -3.25,-6.01 z m -1543.69,-148.49 39.67,238.45 c 1.34,0.11 786.47,3.96 786.47,3.96 l 42.37,-242.41 z m -76.73,0 H 890.484 c -22.714,42.29 -58.113,108.25 -79.609,148.49 -1.082,2 -2.164,4 -3.246,6.01 218.981,26.36 437.961,52.73 656.941,79.09 -18.42,-77.86 -36.84,-155.72 -55.25,-233.59 z m -788.535,502.79 581.445,43.2 242.43,-260.72 -664.707,-79.19 z m -80.387,150.27 278.981,67.82 328.691,-141.67 -550.129,-33.83 z m 1027.962,244.83 284.4,-136.09 -641.42,-170.21 -321.258,146.48 z m 351.95,82.82 284.14,-67.99 -284.14,-134.39 -284.15,134.39 z m -663.58,-430.12 c -0.01,0.01 -0.02,0.02 -0.02,0.03 0.04,-0.05 662.84,194.97 662.84,194.97 l 662.61,-195.7 -244.39,-247.34 h -835.74 l -245.28,248.02 c -0.01,0.01 -0.02,0.02 -0.02,0.03 0,-0.01 0,-0.01 0,-0.01 z m 1693.8,187.48 -321.26,-146.48 -641.41,170.21 284.4,136.09 z M 1919.55,2015.09 C 1802.71,1989.07 608.496,1720.4 487.184,1693.18 c 0,0 252.007,-503.06 378.011,-754.578 702.845,0 1405.675,0 2108.515,0 0.39,0 253.54,504.488 379.72,756.738 -110.23,23.58 -1322.53,294.95 -1433.88,319.75"
         style="fill:#395998;fill-opacity:1;fill-rule:nonzero;stroke:none"
         id="path202" />
      <path
         d="m 1920.31,1790.17 -284.15,134.39 284.15,67.99 284.14,-67.99 -284.14,-134.39"
         style="fill:#b0bfd6;fill-opacity:1;fill-rule:nonzero;stroke:none"
         id="path204" />
      <path
         d="m 2272.26,1909.73 678.27,-159.82 -321.26,-146.48 -641.41,170.21 284.4,136.09"
         style="fill:#b0bfd6;fill-opacity:1;fill-rule:nonzero;stroke:none"
         id="path206" />
      <path
         d="M 2950.13,1011.84 H 2431.3 c -18.42,77.87 -36.83,155.73 -55.25,233.59 218.98,-26.36 437.96,-52.73 656.94,-79.09 -1.08,-2.01 -2.17,-4.01 -3.25,-6.01 -21.49,-40.24 -56.89,-106.2 -79.61,-148.49"
         style="fill:#b0bfd6;fill-opacity:1;fill-rule:nonzero;stroke:none"
         id="path208" />
      <path
         d="m 3060.66,1217.92 -664.7,79.19 242.43,260.72 581.44,-43.2 -159.17,-296.71"
         style="fill:#b0bfd6;fill-opacity:1;fill-rule:nonzero;stroke:none"
         id="path210" />
      <path
         d="m 3242.68,1557.22 -550.14,33.83 328.7,141.67 278.98,-67.82 -57.54,-107.68"
         style="fill:#b0bfd6;fill-opacity:1;fill-rule:nonzero;stroke:none"
         id="path212" />
      <path
         d="m 1568.36,1909.73 -678.278,-159.82 321.258,-146.48 641.42,170.21 -284.4,136.09"
         style="fill:#b0bfd6;fill-opacity:1;fill-rule:nonzero;stroke:none"
         id="path214" />
      <path
         d="m 890.484,1011.84 h 518.836 c 18.42,77.87 36.83,155.73 55.25,233.59 -218.98,-26.36 -437.96,-52.73 -656.941,-79.09 1.082,-2.01 2.164,-4.01 3.246,-6.01 21.496,-40.24 56.895,-106.2 79.609,-148.49"
         style="fill:#b0bfd6;fill-opacity:1;fill-rule:nonzero;stroke:none"
         id="path216" />
      <path
         d="m 620.785,1514.63 581.445,43.2 242.43,-260.72 -664.707,-79.19 -159.168,296.71"
         style="fill:#b0bfd6;fill-opacity:1;fill-rule:nonzero;stroke:none"
         id="path218" />
      <path
         d="m 540.398,1664.9 278.981,67.82 328.691,-141.67 -550.129,-33.83 -57.543,107.68"
         style="fill:#b0bfd6;fill-opacity:1;fill-rule:nonzero;stroke:none"
         id="path220" />
      <path
         d="m 2312.19,1254.25 c 0,0 -785.13,-3.85 -786.47,-3.96 l -39.67,-238.45 h 868.51 l -42.37,242.41"
         style="fill:#b0bfd6;fill-opacity:1;fill-rule:nonzero;stroke:none"
         id="path222" />
      <path
         d="m 4335.63,1625.96 h 227.35 l 3.22,-40.75 -66.49,-16.09 c 0,-2.86 -0.36,-9.3 -1.07,-19.3 -0.72,-10.03 -1.26,-25.74 -1.61,-47.19 -0.36,-21.45 -0.54,-51.85 -0.54,-91.16 v -165.15 c 0.72,-45.04 8.04,-81.5 21.98,-109.39 13.95,-27.88 33.25,-48.09 57.92,-60.59 24.66,-12.51 53.44,-18.77 86.33,-18.77 31.45,0 58.8,6.6 82.04,19.84 23.23,13.23 41.29,34.14 54.15,62.74 12.87,28.58 19.31,66.49 19.31,113.68 v 138.34 c 0,32.17 -0.36,60.59 -1.07,85.26 -0.72,24.66 -1.43,45.04 -2.15,61.13 -0.71,16.08 -1.79,26.27 -3.22,30.56 l -75.07,16.09 3.22,40.75 h 208.05 l 3.22,-40.75 -65.42,-16.09 c 0,-2.14 -0.36,-8.95 -1.07,-20.37 -0.72,-11.45 -1.25,-29.5 -1.61,-54.16 -0.36,-24.67 -0.54,-58.82 -0.54,-102.42 v -143.71 c 0,-60.05 -10.01,-109.38 -30.02,-147.99 -20.02,-38.61 -47.37,-67.21 -82.05,-85.79 -34.67,-18.59 -74.17,-27.891 -118.5,-27.891 -77.93,0 -138.88,21.621 -182.85,64.881 -43.97,43.26 -65.95,103.85 -65.95,181.78 v 178.02 c 0,39.31 -0.36,69.87 -1.07,91.7 -0.72,21.8 -1.25,37.69 -1.61,47.72 -0.36,10.01 -0.9,16.09 -1.61,18.23 l -65.42,16.09 2.15,40.75"
         style="fill:#395998;fill-opacity:1;fill-rule:nonzero;stroke:none"
         id="path224" />
      <path
         d="m 5022.48,985.719 c -19.31,0 -35.39,6.273 -48.26,18.771 -12.87,12.49 -19.31,28.04 -19.31,46.65 0,12.87 2.86,24.13 8.58,33.78 5.72,9.65 13.77,17.32 24.13,23.06 10.37,5.72 21.99,8.58 34.86,8.58 19.3,0 35.39,-6.27 48.26,-18.77 12.86,-12.51 19.3,-28.06 19.3,-46.65 0,-18.61 -6.44,-34.16 -19.3,-46.65 -12.87,-12.498 -28.96,-18.771 -48.26,-18.771"
         style="fill:#395998;fill-opacity:1;fill-rule:nonzero;stroke:none"
         id="path226" />
      <path
         d="m 5365.97,986.789 c -30.74,0 -62.91,3.941 -96.52,11.801 -33.6,7.86 -60.77,17.86 -81.5,30.03 l -5.36,138.34 46.11,4.29 30.03,-95.45 c 17.16,-11.44 36.11,-20.21 56.84,-26.27 20.73,-6.08 42.9,-9.12 66.49,-9.12 35.75,0 64.17,8.58 85.26,25.74 21.09,17.16 31.63,40.38 31.63,69.71 0,25.02 -7.5,45.94 -22.52,62.74 -15.01,16.78 -34.49,31.26 -58.44,43.43 -23.96,12.15 -49.34,24.29 -76.15,36.46 -26.81,12.16 -52.19,25.9 -76.14,41.29 -23.95,15.37 -43.43,34.32 -58.45,56.84 -15.01,22.52 -22.52,50.57 -22.52,84.18 0,35.02 9.65,65.59 28.96,91.7 19.3,26.09 46.29,46.65 80.97,61.66 34.67,15.02 74.17,22.52 118.5,22.52 18.59,0 36.64,-0.91 54.16,-2.68 17.51,-1.79 33.78,-4.46 48.79,-8.04 15.02,-3.59 28.6,-8.23 40.75,-13.94 l 8.58,-134.06 -46.11,-4.29 -30.03,90.09 c -22.16,14.3 -51.47,21.45 -87.94,21.45 -36.46,0 -65.59,-8.76 -87.4,-26.28 -21.81,-17.53 -32.71,-40.93 -32.71,-70.24 0,-25.74 7.69,-47.19 23.06,-64.35 15.37,-17.16 35.03,-32.17 58.98,-45.04 23.95,-12.87 49.33,-25.38 76.14,-37.53 26.81,-12.17 52.2,-25.74 76.15,-40.76 23.95,-15.01 43.61,-33.42 58.98,-55.23 15.37,-21.82 23.06,-48.79 23.06,-80.96 0,-34.32 -9.83,-64.89 -29.49,-91.7 -19.67,-26.81 -47.01,-47.9 -82.05,-63.27 -35.03,-15.37 -75.07,-23.061 -120.11,-23.061"
         style="fill:#395998;fill-opacity:1;fill-rule:nonzero;stroke:none"
         id="path228" />
      <path
         d="m 5735.82,985.719 c -19.31,0 -35.39,6.273 -48.26,18.771 -12.87,12.49 -19.31,28.04 -19.31,46.65 0,12.87 2.86,24.13 8.58,33.78 5.72,9.65 13.77,17.32 24.13,23.06 10.37,5.72 21.99,8.58 34.86,8.58 19.3,0 35.39,-6.27 48.26,-18.77 12.86,-12.51 19.3,-28.06 19.3,-46.65 0,-18.61 -6.44,-34.16 -19.3,-46.65 -12.87,-12.498 -28.96,-18.771 -48.26,-18.771"
         style="fill:#395998;fill-opacity:1;fill-rule:nonzero;stroke:none"
         id="path230" />
      <path
         d="m 6213.69,1568.05 c 0,-6.44 -0.18,-15.19 -0.54,-26.28 -0.36,-11.09 -0.71,-26.81 -1.07,-47.18 -0.36,-20.38 -0.54,-48.1 -0.54,-83.12 v -201.61 c 0,-21.45 0.18,-41.66 0.54,-60.59 0.36,-18.95 1.07,-35.93 2.14,-50.94 1.08,-15.02 1.97,-27.53 2.68,-37.54 22.88,-2.86 43.44,-5.2 61.67,-6.97 18.23,-1.79 35.92,-2.68 53.08,-2.68 75.79,0 133.34,20.2 172.66,60.59 39.33,40.38 58.99,98.83 58.99,175.34 0,46.47 -5.72,87.76 -17.16,123.87 -11.44,36.09 -28.42,66.31 -50.94,90.62 -22.52,24.29 -50.05,42.72 -82.58,55.23 -32.53,12.5 -70.24,18.76 -113.14,18.76 -12.87,0 -26.45,-0.53 -40.75,-1.6 -14.3,-1.07 -29.31,-3.06 -45.04,-5.9 z m -161.94,57.91 h 259.53 c 112.96,0 201.08,-26.99 264.35,-80.97 63.27,-53.99 94.91,-129.6 94.91,-226.82 0,-62.91 -14.66,-118.5 -43.97,-166.76 -29.31,-48.26 -70.06,-86.17 -122.26,-113.68 -52.19,-27.52 -112.24,-41.289 -180.16,-41.289 h -272.4 l -2.14,40.759 65.41,15.01 c 1.43,6.44 2.68,24.67 3.76,54.69 1.07,30.03 1.61,64.35 1.61,102.96 v 201.61 c 0,42.19 -0.54,77.92 -1.61,107.25 -1.08,29.31 -2.33,46.47 -3.76,51.47 l -65.41,15.02 2.14,40.75"
         style="fill:#395998;fill-opacity:1;fill-rule:nonzero;stroke:none"
         id="path232" />
      <path
         d="m 6951.23,987.871 c -41.47,0 -78.83,9.27 -112.07,27.879 -33.25,18.59 -59.7,45.2 -79.36,79.89 -19.66,34.68 -29.49,75.61 -29.49,122.8 0,50.76 10.36,94.73 31.1,131.91 20.73,37.16 47.9,65.95 81.5,86.33 33.61,20.37 69.71,30.19 108.32,29.49 55.76,-0.72 99.38,-19.31 130.83,-55.77 31.46,-36.46 47.19,-87.94 47.19,-154.43 v -19.3 h -329.23 v 47.18 h 258.45 l -11.8,-13.94 v 22.52 c 0,41.46 -9.29,73.29 -27.88,95.45 -18.59,22.15 -43.97,33.25 -76.14,33.25 -20.02,0 -39.32,-5.9 -57.91,-17.7 -18.59,-11.8 -33.61,-29.67 -45.04,-53.62 -11.44,-23.97 -17.16,-54.16 -17.16,-90.62 v -12.87 c 0,-58.63 14.47,-104.4 43.43,-137.27 28.96,-32.89 66.31,-49.33 112.07,-49.33 25.02,0 47.54,4.99 67.56,15.01 20.02,10.01 39.32,26.1 57.91,48.26 l 26.81,-24.66 c -20.02,-37.18 -45.4,-64.89 -76.14,-83.12 -30.74,-18.23 -65.06,-27.339 -102.95,-27.339"
         style="fill:#395998;fill-opacity:1;fill-rule:nonzero;stroke:none"
         id="path234" />
      <path
         d="m 7446.08,1041.49 c 28.6,0 53.8,6.79 75.61,20.37 21.8,13.57 38.96,33.61 51.47,60.06 12.51,26.44 19.13,58.61 19.84,96.52 0.72,34.31 -4.82,64.7 -16.62,91.15 -11.8,26.44 -28.24,47.35 -49.33,62.74 -21.09,15.37 -45.22,23.06 -72.39,23.06 -22.16,0 -42.9,-5.2 -62.2,-15.55 -19.3,-10.37 -36.82,-25.58 -52.55,-45.58 v -259.53 c 14.3,-10.72 30.74,-18.94 49.33,-24.66 18.59,-5.74 37.54,-8.58 56.84,-8.58 z m -258.45,-280.978 -2.15,38.609 66.49,16.078 c 0,3.59 0.18,9.84 0.54,18.77 0.35,8.953 0.89,20.562 1.61,34.863 0.71,14.309 1.25,31.469 1.6,51.469 0.36,20.019 0.54,43.269 0.54,69.711 l 2.15,264.888 c 0,21.45 -0.9,43.25 -2.69,65.42 -1.78,22.15 -3.75,40.03 -5.89,53.62 l -68.64,15.01 v 35.39 l 143.71,39.68 18.23,-17.16 -5.36,-58.98 h 3.21 c 20.02,25.74 42.01,45.21 65.96,58.45 23.95,13.22 49.86,19.84 77.75,19.84 39.32,0 74.17,-9.83 104.56,-29.49 30.38,-19.68 54.33,-46.49 71.85,-80.44 17.52,-33.96 26.28,-73.1 26.28,-117.43 0,-47.18 -10.73,-89.72 -32.18,-127.62 -21.45,-37.9 -50.58,-67.74 -87.4,-89.54 -36.82,-21.818 -78.47,-32.709 -124.94,-32.709 -17.16,0 -35.03,1.789 -53.62,5.36 -18.59,3.57 -35.03,7.859 -49.33,12.869 v -80.432 c 0,-27.168 0.54,-50.226 1.61,-69.168 1.07,-18.941 1.96,-33.07 2.68,-42.371 l 87.94,-13.937 -2.15,-40.75 h -242.36"
         style="fill:#395998;fill-opacity:1;fill-rule:nonzero;stroke:none"
         id="path236" />
      <path
         d="m 7926.24,1051.14 c 16.44,0 31.81,3.75 46.11,11.26 14.3,7.51 28.24,19.12 41.83,34.85 v 112.61 l -120.11,-32.18 c -17.16,-4.29 -29.5,-11.09 -37,-20.37 -7.51,-9.3 -11.26,-21.09 -11.26,-35.39 0,-17.88 8.04,-34.16 24.13,-48.8 16.08,-14.65 34.85,-21.98 56.3,-21.98 z m -28.96,-63.269 c -28.59,0 -53.98,5.731 -76.14,17.149 -22.16,11.43 -39.5,26.1 -52.01,43.97 -12.51,17.86 -18.77,36.47 -18.77,55.77 0,24.29 7.87,44.33 23.59,60.06 15.73,15.71 41.47,29.31 77.22,40.75 l 163.01,54.69 v 54.7 c 0,17.85 -5.36,34.13 -16.09,48.79 -10.72,14.64 -25.02,26.27 -42.9,34.85 -17.87,8.58 -37.89,12.87 -60.05,12.87 -17.87,0 -30.03,-3.75 -36.46,-11.26 -6.44,-7.5 -10.37,-22.35 -11.8,-44.5 l -2.15,-45.04 c -25.73,-5.74 -47.54,-4.83 -65.41,2.68 -17.88,7.5 -26.81,19.84 -26.81,37 0,12.15 5.18,24.29 15.55,36.46 10.36,12.15 24.13,23.75 41.28,34.85 17.16,11.08 35.75,20.54 55.77,28.42 20.02,7.87 39.68,13.23 58.98,16.09 52.91,0 95.27,-13.94 127.09,-41.83 31.81,-27.88 48.08,-64.34 48.79,-109.38 l -2.14,-180.17 c 0,-13.59 0.53,-26.81 1.61,-39.68 1.07,-12.87 2.68,-22.52 4.82,-28.96 l 68.64,-12.87 v -33.24 l -52.55,-19.31 c -10.01,-3.589 -19.31,-6.589 -27.89,-9.109 -8.57,-2.5 -15.72,-3.75 -21.44,-3.75 -22.17,0 -36.47,12.489 -42.9,37.529 l -11.8,41.82 h 16.09 c -23.59,-26.45 -46.29,-46.29 -68.1,-59.51 -21.81,-13.23 -44.15,-19.839 -67.03,-19.839"
         style="fill:#395998;fill-opacity:1;fill-rule:nonzero;stroke:none"
         id="path238" />
      <path
         d="m 8230.81,996.441 -3.22,38.609 66.49,16.09 c 0.72,3.57 1.43,10.01 2.15,19.3 0.71,9.28 1.25,21.81 1.6,37.54 0.36,15.71 0.54,35.01 0.54,57.91 l 1.07,83.65 c 0,23.59 -0.89,46.81 -2.68,69.7 -1.79,22.88 -3.75,41.11 -5.9,54.7 l -68.63,15.01 v 35.39 l 143.7,39.68 15.02,-15.01 -4.29,-90.09 3.22,-1.07 c 21.44,41.45 43.25,69.53 65.41,84.19 22.17,14.64 42.9,21.98 62.2,21.98 16.45,0 30.21,-4.12 41.29,-12.33 11.08,-8.22 16.62,-20.56 16.62,-37 0,-17.16 -5.89,-30.21 -17.69,-39.14 -11.8,-8.95 -26.63,-13.41 -44.51,-13.41 -12.87,0 -25.2,2.85 -36.99,8.58 -11.8,5.72 -23.06,13.57 -33.79,23.59 l 19.31,-6.43 c -13.59,-8.58 -26.46,-20.55 -38.61,-35.93 -12.15,-15.38 -23.24,-34.49 -33.24,-57.37 l 1.07,-99.74 c 0.71,-17.87 1.43,-36.46 2.14,-55.76 0.72,-19.31 1.43,-36.64 2.15,-52.02 0.71,-15.38 1.43,-27.34 2.14,-35.92 l 93.3,-13.94 -2.14,-40.759 h -247.73"
         style="fill:#395998;fill-opacity:1;fill-rule:nonzero;stroke:none"
         id="path240" />
      <path
         d="m 8723.05,1402.89 v 53.63 h 200.54 v -53.63 z m 232.72,-339.95 c -13.59,-23.6 -32.18,-42.01 -55.77,-55.23 -23.59,-13.23 -48.26,-19.839 -74,-19.839 -43.61,0 -79.36,13.219 -107.24,39.679 -27.88,26.43 -41.82,66.11 -41.82,119.03 l 3.21,256.31 h -75.07 v 22.52 l 138.35,125.48 h 20.37 l -2.14,-123.33 -1.07,-263.82 c 0,-37.17 8.04,-64.71 24.13,-82.57 16.08,-17.88 38.78,-26.81 68.09,-26.81 16.45,0 31.64,3.21 45.58,9.65 13.94,6.43 26.63,15.01 38.07,25.74 l 19.31,-26.81"
         style="fill:#395998;fill-opacity:1;fill-rule:nonzero;stroke:none"
         id="path242" />
      <path
         d="m 9588.5,996.441 -3.22,38.609 61.13,16.09 c 0.71,5.72 1.25,12.87 1.61,21.45 0.35,8.58 0.89,19.46 1.61,32.71 0.71,13.22 1.07,29.84 1.07,49.86 v 116.9 c 0,31.46 -5.36,56.46 -16.09,75.07 -10.72,18.59 -24.13,32.17 -40.21,40.75 -16.09,8.58 -32.36,12.87 -48.8,12.87 -24.31,0 -46.83,-6.08 -67.56,-18.23 -20.73,-12.17 -39.32,-30.75 -55.77,-55.77 l -20.37,39.68 c 25.02,34.32 51.65,59.52 79.89,75.61 28.24,16.08 58.09,24.13 89.55,24.13 30.03,0 57.2,-7.15 81.5,-21.45 24.31,-14.32 43.62,-35.03 57.91,-62.2 14.3,-27.19 21.45,-60.06 21.45,-98.67 v -121.18 c 0,-25.74 0.54,-48.79 1.61,-69.17 1.07,-20.38 2.33,-34.5 3.76,-42.36 l 66.49,-16.09 -2.15,-38.609 z m -604.85,0 -2.14,38.609 66.49,16.09 c 0.71,4.99 1.25,11.42 1.6,19.3 0.36,7.87 0.9,19.31 1.61,34.32 0.72,15.01 1.08,35.39 1.08,61.13 l 1.07,83.65 c 0.71,15.01 0.53,30.38 -0.54,46.11 -1.07,15.72 -2.32,30.57 -3.75,44.51 -1.43,13.94 -2.86,25.2 -4.29,33.78 l -68.64,15.01 v 35.39 l 143.71,39.68 18.23,-17.16 -5.36,-57.91 3.21,-1.07 c 22.17,27.88 45.23,47.89 69.18,60.06 23.95,12.15 48.43,18.23 73.46,18.23 25.02,0 49.33,-6.81 72.92,-20.38 23.6,-13.58 43.08,-34.32 58.45,-62.2 15.37,-27.88 23.06,-63.65 23.06,-107.24 l 1.07,-113.68 c 0,-25.74 0.53,-48.79 1.61,-69.17 1.07,-20.38 2.68,-34.5 4.82,-42.36 l 64.35,-16.09 -3.22,-38.609 h -209.12 l -3.22,38.609 58.98,16.09 c 0.72,5.72 1.43,12.87 2.15,21.45 0.71,8.58 1.25,19.46 1.61,32.71 0.36,13.22 0.53,29.84 0.53,49.86 l -1.07,117.97 c 0,30.73 -4.82,55.39 -14.48,74 -9.65,18.59 -22.34,32.17 -38.07,40.75 -15.73,8.58 -32.53,12.87 -50.4,12.87 -22.16,0 -42.9,-5.36 -62.2,-16.09 -19.3,-10.72 -36.46,-27.52 -51.48,-50.4 v -160.87 c 0,-32.88 0.54,-59.51 1.61,-79.89 1.07,-20.38 2.32,-34.5 3.75,-42.36 l 63.28,-16.09 -3.22,-38.609 h -216.63"
         style="fill:#395998;fill-opacity:1;fill-rule:nonzero;stroke:none"
         id="path244" />
      <path
         d="m 10041.2,987.871 c -41.43,0 -78.78,9.27 -112.03,27.879 -33.25,18.59 -59.7,45.2 -79.36,79.89 -19.66,34.68 -29.49,75.61 -29.49,122.8 0,50.76 10.37,94.73 31.1,131.91 20.73,37.16 47.9,65.95 81.5,86.33 33.61,20.37 69.68,30.19 108.28,29.49 55.8,-0.72 99.4,-19.31 130.9,-55.77 31.4,-36.46 47.2,-87.94 47.2,-154.43 v -19.3 h -329.27 v 47.18 h 258.47 l -11.8,-13.94 v 22.52 c 0,41.46 -9.3,73.29 -27.9,95.45 -18.6,22.15 -44,33.25 -76.1,33.25 -20.1,0 -39.36,-5.9 -57.95,-17.7 -18.59,-11.8 -33.6,-29.67 -45.04,-53.62 -11.44,-23.97 -17.16,-54.16 -17.16,-90.62 v -12.87 c 0,-58.63 14.48,-104.4 43.43,-137.27 28.96,-32.89 66.32,-49.33 112.02,-49.33 25.1,0 47.6,4.99 67.6,15.01 20,10.01 39.3,26.1 57.9,48.26 l 26.8,-24.66 c -20,-37.18 -45.4,-64.89 -76.1,-83.12 -30.8,-18.23 -65.1,-27.339 -103,-27.339"
         style="fill:#395998;fill-opacity:1;fill-rule:nonzero;stroke:none"
         id="path246" />
      <path
         d="m 10268.4,996.441 -2.1,38.609 66.5,16.09 c 0.7,4.99 1.2,11.8 1.6,20.37 0.4,8.58 0.9,20.38 1.6,35.39 0.7,15.02 1.1,34.68 1.1,58.99 l 1.1,82.57 c 0,23.6 -0.9,47.01 -2.7,70.25 -1.8,23.22 -3.8,41.64 -5.9,55.23 l -68.7,15.01 v 35.39 l 143.7,39.68 18.3,-17.16 -5.4,-56.84 3.2,-1.07 c 25.1,27.17 49.7,46.82 74,58.99 24.3,12.15 50.8,18.23 79.4,18.23 26.4,0 51.3,-6.62 74.5,-19.84 23.3,-13.24 42.2,-33.43 56.9,-60.59 14.6,-27.19 21.9,-61.85 21.9,-104.03 v -119.04 c 0,-25.74 0.6,-48.97 1.7,-69.71 1,-20.75 2.6,-34.69 4.8,-41.82 l 66.5,-16.09 -3.2,-38.609 h -215.6 l -2.1,38.609 62.2,16.09 c 0.7,5.72 1.4,12.87 2.1,21.45 0.7,8.58 1.2,19.46 1.6,32.71 0.4,13.22 0.5,29.84 0.5,49.86 v 115.83 c 0,32.17 -5.5,57.73 -16.6,76.67 -11.1,18.94 -24.8,32.53 -41.3,40.76 -16.4,8.2 -33.2,12.33 -50.4,12.33 -23.6,0 -45.6,-5.9 -65.9,-17.7 -20.4,-11.79 -37.7,-28.06 -52,-48.79 v -160.87 c 0,-32.88 0.5,-59.51 1.6,-79.89 1,-20.38 2.3,-34.5 3.7,-42.36 l 66.5,-16.09 -3.2,-38.609 h -219.9"
         style="fill:#395998;fill-opacity:1;fill-rule:nonzero;stroke:none"
         id="path248" />
      <path
         d="m 10905.6,1402.89 v 53.63 h 200.6 v -53.63 z m 232.8,-339.95 c -13.6,-23.6 -32.2,-42.01 -55.8,-55.23 -23.6,-13.23 -48.3,-19.839 -74,-19.839 -43.6,0 -79.4,13.219 -107.2,39.679 -27.9,26.43 -41.9,66.11 -41.9,119.03 l 3.2,256.31 h -75 v 22.52 l 138.3,125.48 h 20.4 l -2.1,-123.33 -1.1,-263.82 c 0,-37.17 8,-64.71 24.1,-82.57 16.1,-17.88 38.8,-26.81 68.1,-26.81 16.5,0 31.6,3.21 45.6,9.65 13.9,6.43 26.6,15.01 38.1,25.74 l 19.3,-26.81"
         style="fill:#395998;fill-opacity:1;fill-rule:nonzero;stroke:none"
         id="path250" />
      <path
         d="m 12966,993.23 -222,576.96 -53.7,15.02 2.2,40.75 h 217.7 l 3.2,-40.75 -65.4,-13.94 173.7,-468.66 h -21.4 l 169.4,467.58 -76.1,15.02 3.2,40.75 h 197.3 l 3.2,-40.75 -54.7,-15.02 -230.5,-576.96 z m -150.2,475.08 -190.9,-475.08 h -46.1 l -224.1,576.96 -53.7,15.02 2.2,40.75 h 209.1 l 3.2,-40.75 -54.7,-13.94 175.9,-468.66 h -22.5 l 170.5,451.5 31.1,-85.8"
         style="fill:#395998;fill-opacity:1;fill-rule:nonzero;stroke:none"
         id="path252" />
      <path
         d="m 13423.4,1051.14 c 16.5,0 31.9,3.75 46.2,11.26 14.3,7.51 28.2,19.12 41.8,34.85 v 112.61 l -120.1,-32.18 c -17.2,-4.29 -29.5,-11.09 -37,-20.37 -7.5,-9.3 -11.3,-21.09 -11.3,-35.39 0,-17.88 8.1,-34.16 24.1,-48.8 16.1,-14.65 34.9,-21.98 56.3,-21.98 z m -28.9,-63.269 c -28.6,0 -54,5.731 -76.1,17.149 -22.2,11.43 -39.6,26.1 -52.1,43.97 -12.5,17.86 -18.7,36.47 -18.7,55.77 0,24.29 7.8,44.33 23.6,60.06 15.7,15.71 41.4,29.31 77.2,40.75 l 163,54.69 v 54.7 c 0,17.85 -5.4,34.13 -16.1,48.79 -10.7,14.64 -25,26.27 -42.9,34.85 -17.9,8.58 -37.9,12.87 -60.1,12.87 -17.8,0 -30,-3.75 -36.4,-11.26 -6.4,-7.5 -10.4,-22.35 -11.8,-44.5 l -2.2,-45.04 c -25.7,-5.74 -47.5,-4.83 -65.4,2.68 -17.8,7.5 -26.8,19.84 -26.8,37 0,12.15 5.2,24.29 15.6,36.46 10.3,12.15 24.1,23.75 41.3,34.85 17.1,11.08 35.7,20.54 55.7,28.42 20,7.87 39.7,13.23 59,16.09 52.9,0 95.3,-13.94 127.1,-41.83 31.8,-27.88 48.1,-64.34 48.8,-109.38 l -2.2,-180.17 c 0,-13.59 0.6,-26.81 1.6,-39.68 1.1,-12.87 2.7,-22.52 4.9,-28.96 l 68.6,-12.87 v -33.24 l -52.5,-19.31 c -10.1,-3.589 -19.3,-6.589 -27.9,-9.109 -8.6,-2.5 -15.8,-3.75 -21.5,-3.75 -22.1,0 -36.4,12.489 -42.9,37.529 l -11.8,41.82 h 16.1 c -23.6,-26.45 -46.3,-46.29 -68.1,-59.51 -21.8,-13.23 -44.1,-19.839 -67,-19.839"
         style="fill:#395998;fill-opacity:1;fill-rule:nonzero;stroke:none"
         id="path254" />
      <path
         d="m 13728,996.441 -3.2,38.609 66.5,16.09 c 0.7,3.57 1.4,10.01 2.1,19.3 0.7,9.28 1.3,21.81 1.6,37.54 0.4,15.71 0.6,35.01 0.6,57.91 l 1.1,83.65 c 0,23.59 -0.9,46.81 -2.7,69.7 -1.8,22.88 -3.8,41.11 -5.9,54.7 l -68.7,15.01 v 35.39 l 143.7,39.68 15.1,-15.01 -4.3,-90.09 3.2,-1.07 c 21.4,41.45 43.2,69.53 65.4,84.19 22.2,14.64 42.9,21.98 62.2,21.98 16.4,0 30.2,-4.12 41.3,-12.33 11.1,-8.22 16.6,-20.56 16.6,-37 0,-17.16 -5.9,-30.21 -17.7,-39.14 -11.8,-8.95 -26.6,-13.41 -44.5,-13.41 -12.9,0 -25.2,2.85 -37,8.58 -11.8,5.72 -23,13.57 -33.8,23.59 l 19.3,-6.43 c -13.5,-8.58 -26.4,-20.55 -38.6,-35.93 -12.1,-15.38 -23.2,-34.49 -33.2,-57.37 l 1.1,-99.74 c 0.7,-17.87 1.4,-36.46 2.1,-55.76 0.7,-19.31 1.4,-36.64 2.1,-52.02 0.8,-15.38 1.5,-27.34 2.2,-35.92 l 93.3,-13.94 -2.2,-40.759 H 13728"
         style="fill:#395998;fill-opacity:1;fill-rule:nonzero;stroke:none"
         id="path256" />
      <path
         d="m 11539.6,1021.34 c 18.9,0 36.1,6.28 51.5,18.89 15.4,12.59 28.6,29.42 39.7,50.52 11,21.09 19.5,44.86 25.5,71.3 5.9,26.44 8.9,53.5 8.9,81.21 0,34.61 -6.7,62 -20.3,82.16 -13.5,20.14 -30.4,30.21 -50.5,30.21 -18.9,0 -36,-6.29 -51.5,-18.88 -15.4,-12.61 -28.5,-29.6 -39.2,-51 -10.7,-21.4 -19,-45.48 -25,-72.24 -6,-26.77 -9,-53.98 -9,-81.68 0,-36.52 6.8,-64.07 20.4,-82.63 13.5,-18.57 30,-27.86 49.5,-27.86 z m -20.7,-44.379 c -24,0 -45.7,5.82 -65.2,17.469 -19.5,11.65 -34.9,28.33 -46.3,50.05 -11.3,21.72 -17,47.36 -17,76.96 0,34 5.7,67.36 17,100.1 11.4,32.72 27.3,62.47 47.7,89.24 20.5,26.76 44.2,48 71.3,63.74 27.1,15.73 56,23.61 86.9,23.61 23.9,0 45.8,-5.82 65.6,-17.47 19.8,-11.66 35.6,-28.33 47.2,-50.05 11.7,-21.72 17.5,-47.37 17.5,-76.96 0,-34 -5.8,-67.52 -17.5,-100.57 -11.6,-33.06 -27.7,-62.8 -48.1,-89.24 -20.5,-26.44 -44.3,-47.55 -71.3,-63.27 -27.1,-15.738 -56.4,-23.609 -87.8,-23.609"
         style="fill:#395998;fill-opacity:1;fill-rule:nonzero;stroke:none"
         id="path258" />
      <path
         d="m 11809.7,1341.47 6.6,31.16 74.6,16.06 h 164.3 l -9.4,-47.22 z m 289,302.19 c 13.8,0 24.7,-3.31 32.6,-9.92 7.8,-6.61 11.8,-16.21 11.8,-28.8 0,-8.19 -2.1,-16.53 -6.2,-25.03 -4.1,-8.5 -10.2,-16.52 -18.4,-24.08 -8.8,7.56 -18.4,13.06 -28.8,16.53 -10.4,3.45 -20.3,5.19 -29.7,5.19 -17.7,0 -34.5,-7.24 -50.6,-21.72 -16,-14.49 -27.2,-38.1 -33.5,-70.82 l -17.9,-96.32 -3.8,-33.06 -64.2,-326.73 c -8.2,-40.939 -19.7,-77.439 -34.5,-109.548 -14.8,-32.102 -31.8,-59.332 -51,-81.68 -19.2,-22.34 -39.5,-39.332 -60.9,-50.992 -21.4,-11.649 -42.8,-17.469 -64.2,-17.469 -13.9,0 -25,3.301 -33.5,9.91 -8.5,6.609 -12.8,15.91 -12.8,27.859 0,8.829 2.1,17.469 6.2,25.969 4,8.5 9.9,16.52 17.4,24.082 9.5,-7.562 19.9,-13.222 31.2,-17 11.3,-3.781 22,-5.672 32.1,-5.672 13.8,0 25.8,3.782 35.9,11.34 10.1,7.551 18.9,20.93 26.4,40.133 7.6,19.219 14.5,46.129 20.8,80.738 l 90.7,453.28 c 5.6,28.95 15.4,56.8 29.2,83.57 13.9,26.76 30.4,50.67 49.6,71.77 19.2,21.09 39.7,37.77 61.4,50.05 21.7,12.28 43.3,18.42 64.7,18.42"
         style="fill:#395998;fill-opacity:1;fill-rule:nonzero;stroke:none"
         id="path260" />
    </g>
  </g>
</svg>
